<svg width="30" height="30" viewBox="0 0 30 30" fill="none" xmlns="http://www.w3.org/2000/svg">
<g clip-path="url(#clip0_65_14399)">
<path d="M21.6688 21.8355L20.2856 18.9898C19.9165 18.2306 18.9312 17.889 18.1708 18.2587L17.6963 18.4894L20.4636 24.1804L20.9379 23.9498C21.7257 23.5668 22.0509 22.6196 21.6688 21.8355Z" fill="#028CDE"/>
<path d="M16.735 18.9238C16.171 19.1147 15.541 18.8815 15.2754 18.3335L12.541 12.705C12.2744 12.1567 12.4803 11.5167 12.9784 11.1921L10.2174 5.51415C7.67077 7.00252 6.63959 10.2153 7.95043 12.9112L12.278 21.8167C13.536 24.4037 16.5969 25.7473 19.4961 24.6019L16.735 18.9238Z" fill="#028CDE"/>
<path d="M15.1193 8.3599L13.736 5.5142C13.3669 4.75506 12.3816 4.41338 11.6212 4.78313L11.1468 5.01382L13.9141 10.7049L14.3884 10.4742C15.1761 10.0912 15.5014 9.1441 15.1193 8.3599Z" fill="#028CDE"/>
</g>
<circle cx="15" cy="15" r="14.5" stroke="#028CDE"/>
<defs>
<clipPath id="clip0_65_14399">
<rect width="18" height="18" fill="white" transform="translate(9.43433 3.55322) rotate(19.07)"/>
</clipPath>
</defs>
</svg>
