<svg width="24" height="24" viewBox="0 0 24 24" fill="none" xmlns="http://www.w3.org/2000/svg">
<path d="M20.0037 8.99884V4.99717C20.0037 3.89214 19.1079 2.99634 18.0028 2.99634H4.99742C3.89239 2.99634 2.99658 3.89214 2.99658 4.99717V19.003C2.99658 20.108 3.89239 21.0038 4.99742 21.0038H9.9995" stroke="white" stroke-width="1.5" stroke-linecap="round" stroke-linejoin="round"/>
<path d="M6.99805 6.99801H16.0018" stroke="white" stroke-width="1.5" stroke-linecap="round" stroke-linejoin="round"/>
<path d="M6.99805 10.9997H12.0001" stroke="white" stroke-width="1.5" stroke-linecap="round" stroke-linejoin="round"/>
<path d="M6.99805 15.0014H9.9993" stroke="white" stroke-width="1.5" stroke-linecap="round" stroke-linejoin="round"/>
<path d="M21.0039 21.0039L19.3643 19.3643" stroke="white" stroke-width="1.5" stroke-linecap="round" stroke-linejoin="round"/>
<path d="M16.726 13.0005C18.7836 13.0005 20.4516 14.6685 20.4516 16.726C20.4516 18.7836 18.7836 20.4516 16.726 20.4516C14.6685 20.4516 13.0005 18.7836 13.0005 16.726C13.0006 14.6685 14.6685 13.0006 16.726 13.0005" stroke="white" stroke-width="1.5" stroke-linecap="round" stroke-linejoin="round"/>
</svg>
