<svg width="22" height="22" viewBox="0 0 22 22" fill="none" xmlns="http://www.w3.org/2000/svg">
<g clip-path="url(#clip0_1_2021)">
<path fill-rule="evenodd" clip-rule="evenodd" d="M5.17676 1.05222e-09H5.07402C4.89642 0.00564195 4.72114 0.0419859 4.55594 0.107422L4.5104 0.125469C3.79823 0.407473 1.69805 1.18461 1.18032 1.70242C0.407613 2.475 0.052648 3.43449 0.00538239 4.52005C-0.0473832 5.73306 0.294304 6.99574 0.745261 8.11143C1.88823 10.9392 4.03418 13.6817 6.1763 15.8239C8.31842 17.9661 11.0609 20.1122 13.8888 21.2551C14.9341 21.6777 16.097 22 17.2321 22C17.3149 22 17.3977 21.9983 17.4804 21.9948C18.5659 21.9475 19.5257 21.5925 20.298 20.82C20.8276 20.2904 21.5913 18.2183 21.8733 17.4948L21.891 17.4491C22.0275 17.107 22.0358 16.7272 21.9145 16.3795C21.7932 16.0318 21.5505 15.7397 21.2309 15.5567L17.4685 13.3848C17.1158 13.182 16.6972 13.1272 16.3042 13.2325C15.9112 13.3378 15.576 13.5946 15.372 13.9465C14.9998 14.5911 14.4362 15.1139 13.6876 15.2669C13.3357 15.3437 12.9713 15.3426 12.6199 15.2637C12.2685 15.1848 11.9386 15.0299 11.6534 14.81C10.8178 14.1829 10.0209 13.4556 9.28251 12.7174C8.54413 11.9792 7.81727 11.1824 7.19023 10.3469C6.97028 10.0617 6.8154 9.73181 6.73645 9.38039C6.6575 9.02897 6.65639 8.66454 6.73321 8.31265C6.88623 7.56435 7.40937 7.00047 8.05377 6.62827C8.40544 6.42399 8.66194 6.08879 8.76719 5.69595C8.87244 5.3031 8.81789 4.88457 8.61546 4.53183L6.44343 0.769527C6.31551 0.543828 6.13196 0.354624 5.91024 0.219925C5.68852 0.0852262 5.43601 0.0095156 5.17676 1.05222e-09V1.05222e-09ZM11.1593 0.877422C11.1593 0.762192 11.182 0.648091 11.2261 0.541634C11.2702 0.435177 11.3348 0.338449 11.4163 0.256973C11.4978 0.175497 11.5945 0.110868 11.701 0.0667766C11.8074 0.0226851 11.9215 -5.64182e-06 12.0368 1.05222e-09C13.345 -1.12855e-05 14.6405 0.257666 15.8491 0.758317C17.0578 1.25897 18.156 1.99279 19.0811 2.91788C20.0062 3.84297 20.74 4.94122 21.2406 6.1499C21.7412 7.35859 21.9989 8.65405 21.9988 9.96231C21.9988 10.195 21.9064 10.4182 21.7418 10.5827C21.5773 10.7473 21.3541 10.8397 21.1214 10.8397C20.8887 10.8397 20.6655 10.7473 20.501 10.5827C20.3364 10.4182 20.244 10.195 20.244 9.96231C20.244 8.88452 20.0317 7.81728 19.6193 6.82153C19.2069 5.82578 18.6024 4.92101 17.8403 4.15889C17.0782 3.39677 16.1734 2.79222 15.1777 2.37976C14.1819 1.96731 13.1147 1.75502 12.0369 1.75502C11.9217 1.75504 11.8075 1.73236 11.701 1.68827C11.5946 1.64418 11.4978 1.57954 11.4163 1.49804C11.3348 1.41655 11.2701 1.31979 11.226 1.2133C11.1819 1.10681 11.1592 0.992681 11.1593 0.877422ZM11.1593 4.43236C11.1592 4.31712 11.1819 4.20301 11.226 4.09654C11.2701 3.99007 11.3347 3.89333 11.4162 3.81184C11.4977 3.73035 11.5944 3.6657 11.7009 3.62159C11.8073 3.57748 11.9214 3.55477 12.0367 3.55476C12.8781 3.55472 13.7113 3.72043 14.4887 4.04241C15.2661 4.3644 15.9725 4.83636 16.5674 5.43135C17.1624 6.02634 17.6344 6.7327 17.9564 7.51009C18.2783 8.28749 18.444 9.1207 18.444 9.96213C18.4424 10.1938 18.3492 10.4154 18.1848 10.5786C18.0205 10.7419 17.7982 10.8335 17.5666 10.8335C17.3349 10.8335 17.1126 10.7419 16.9483 10.5786C16.7839 10.4154 16.6907 10.1938 16.6891 9.96213C16.6891 9.35117 16.5688 8.74619 16.335 8.18173C16.1012 7.61728 15.7585 7.1044 15.3265 6.67238C14.8945 6.24037 14.3816 5.89768 13.8172 5.66388C13.2527 5.43009 12.6477 5.30976 12.0368 5.30978C11.9215 5.30978 11.8074 5.28709 11.701 5.243C11.5945 5.19891 11.4978 5.13428 11.4163 5.0528C11.3348 4.97133 11.2702 4.8746 11.2261 4.76814C11.182 4.66169 11.1593 4.54759 11.1593 4.43236ZM11.1593 7.98707C11.1593 7.75436 11.2517 7.53119 11.4163 7.36665C11.5809 7.20211 11.8041 7.10968 12.0368 7.1097C12.4113 7.10968 12.7823 7.18345 13.1283 7.32679C13.4744 7.47013 13.7889 7.68024 14.0537 7.94512C14.3186 8.21 14.5287 8.52446 14.6721 8.87054C14.8154 9.21662 14.8891 9.58754 14.8891 9.96213C14.8891 10.1949 14.7967 10.418 14.6321 10.5826C14.4676 10.7472 14.2444 10.8396 14.0116 10.8396C13.7789 10.8396 13.5557 10.7472 13.3912 10.5826C13.2266 10.418 13.1342 10.1949 13.1342 9.96213C13.1342 9.818 13.1058 9.67527 13.0507 9.5421C12.9956 9.40893 12.9147 9.28793 12.8128 9.186C12.7109 9.08407 12.5899 9.00322 12.4568 8.94805C12.3236 8.89289 12.1809 8.8645 12.0368 8.8645C11.9215 8.8645 11.8074 8.84181 11.701 8.79772C11.5945 8.75363 11.4978 8.689 11.4163 8.60752C11.3348 8.52605 11.2702 8.42932 11.2261 8.32286C11.182 8.21641 11.1593 8.1023 11.1593 7.98707Z" fill="url(#paint0_linear_1_2021)"/>
</g>
<defs>
<linearGradient id="paint0_linear_1_2021" x1="10.9999" y1="0" x2="10.9999" y2="22" gradientUnits="userSpaceOnUse">
<stop stop-color="#FF6B69"/>
<stop offset="1" stop-color="#E20200"/>
</linearGradient>
<clipPath id="clip0_1_2021">
<rect width="22" height="22" fill="white"/>
</clipPath>
</defs>
</svg>
