<svg width="23" height="22" viewBox="0 0 23 22" fill="none" xmlns="http://www.w3.org/2000/svg">
<g clip-path="url(#clip0_1_2048)">
<path fill-rule="evenodd" clip-rule="evenodd" d="M5.67676 1.05222e-09H5.57402C5.39642 0.00564195 5.22114 0.0419859 5.05594 0.107422L5.0104 0.125469C4.29823 0.407473 2.19805 1.18461 1.68032 1.70242C0.907613 2.475 0.552648 3.43449 0.505382 4.52005C0.452617 5.73306 0.794304 6.99574 1.24526 8.11143C2.38823 10.9392 4.53418 13.6817 6.6763 15.8239C8.81842 17.9661 11.5609 20.1122 14.3888 21.2551C15.4341 21.6777 16.597 22 17.7321 22C17.8149 22 17.8977 21.9983 17.9804 21.9948C19.0659 21.9475 20.0257 21.5925 20.798 20.82C21.3276 20.2904 22.0913 18.2183 22.3733 17.4948L22.391 17.4491C22.5275 17.107 22.5358 16.7272 22.4145 16.3795C22.2932 16.0318 22.0505 15.7397 21.7309 15.5567L17.9685 13.3848C17.6158 13.182 17.1972 13.1272 16.8042 13.2325C16.4112 13.3378 16.076 13.5946 15.872 13.9465C15.4998 14.5911 14.9362 15.1139 14.1876 15.2669C13.8357 15.3437 13.4713 15.3426 13.1199 15.2637C12.7685 15.1848 12.4386 15.0299 12.1534 14.81C11.3178 14.1829 10.5209 13.4556 9.78251 12.7174C9.04413 11.9792 8.31727 11.1824 7.69023 10.3469C7.47028 10.0617 7.3154 9.73181 7.23645 9.38039C7.1575 9.02897 7.15639 8.66454 7.23321 8.31265C7.38623 7.56435 7.90937 7.00047 8.55377 6.62827C8.90544 6.42399 9.16194 6.08879 9.26719 5.69595C9.37244 5.3031 9.31789 4.88457 9.11546 4.53183L6.94343 0.769527C6.81551 0.543828 6.63196 0.354624 6.41024 0.219925C6.18852 0.0852262 5.93601 0.0095156 5.67676 1.05222e-09V1.05222e-09ZM11.6593 0.877422C11.6593 0.762192 11.682 0.648091 11.7261 0.541634C11.7702 0.435177 11.8348 0.338449 11.9163 0.256973C11.9978 0.175497 12.0945 0.110868 12.201 0.0667766C12.3074 0.0226851 12.4215 -5.64182e-06 12.5368 1.05222e-09C13.845 -1.12855e-05 15.1405 0.257666 16.3491 0.758317C17.5578 1.25897 18.656 1.99279 19.5811 2.91788C20.5062 3.84297 21.24 4.94122 21.7406 6.1499C22.2412 7.35859 22.4989 8.65405 22.4988 9.96231C22.4988 10.195 22.4064 10.4182 22.2418 10.5827C22.0773 10.7473 21.8541 10.8397 21.6214 10.8397C21.3887 10.8397 21.1655 10.7473 21.001 10.5827C20.8364 10.4182 20.744 10.195 20.744 9.96231C20.744 8.88452 20.5317 7.81728 20.1193 6.82153C19.7069 5.82578 19.1024 4.92101 18.3403 4.15889C17.5782 3.39677 16.6734 2.79222 15.6777 2.37976C14.6819 1.96731 13.6147 1.75502 12.5369 1.75502C12.4217 1.75504 12.3075 1.73236 12.201 1.68827C12.0946 1.64418 11.9978 1.57954 11.9163 1.49804C11.8348 1.41655 11.7701 1.31979 11.726 1.2133C11.6819 1.10681 11.6592 0.992681 11.6593 0.877422ZM11.6593 4.43236C11.6592 4.31712 11.6819 4.20301 11.726 4.09654C11.7701 3.99007 11.8347 3.89333 11.9162 3.81184C11.9977 3.73035 12.0944 3.6657 12.2009 3.62159C12.3073 3.57748 12.4214 3.55477 12.5367 3.55476C13.3781 3.55472 14.2113 3.72043 14.9887 4.04241C15.7661 4.3644 16.4725 4.83636 17.0674 5.43135C17.6624 6.02634 18.1344 6.7327 18.4564 7.51009C18.7783 8.28749 18.944 9.1207 18.944 9.96213C18.9424 10.1938 18.8492 10.4154 18.6848 10.5786C18.5205 10.7419 18.2982 10.8335 18.0666 10.8335C17.8349 10.8335 17.6126 10.7419 17.4483 10.5786C17.2839 10.4154 17.1907 10.1938 17.1891 9.96213C17.1891 9.35117 17.0688 8.74619 16.835 8.18173C16.6012 7.61728 16.2585 7.1044 15.8265 6.67238C15.3945 6.24037 14.8816 5.89768 14.3172 5.66388C13.7527 5.43009 13.1477 5.30976 12.5368 5.30978C12.4215 5.30978 12.3074 5.28709 12.201 5.243C12.0945 5.19891 11.9978 5.13428 11.9163 5.0528C11.8348 4.97133 11.7702 4.8746 11.7261 4.76814C11.682 4.66169 11.6593 4.54759 11.6593 4.43236ZM11.6593 7.98707C11.6593 7.75436 11.7517 7.53119 11.9163 7.36665C12.0809 7.20211 12.3041 7.10968 12.5368 7.1097C12.9113 7.10968 13.2823 7.18345 13.6283 7.32679C13.9744 7.47013 14.2889 7.68024 14.5537 7.94512C14.8186 8.21 15.0287 8.52446 15.1721 8.87054C15.3154 9.21662 15.3891 9.58754 15.3891 9.96213C15.3891 10.1949 15.2967 10.418 15.1321 10.5826C14.9676 10.7472 14.7444 10.8396 14.5116 10.8396C14.2789 10.8396 14.0557 10.7472 13.8912 10.5826C13.7266 10.418 13.6342 10.1949 13.6342 9.96213C13.6342 9.818 13.6058 9.67527 13.5507 9.5421C13.4956 9.40893 13.4147 9.28793 13.3128 9.186C13.2109 9.08407 13.0899 9.00322 12.9568 8.94805C12.8236 8.89289 12.6809 8.8645 12.5368 8.8645C12.4215 8.8645 12.3074 8.84181 12.201 8.79772C12.0945 8.75363 11.9978 8.689 11.9163 8.60752C11.8348 8.52605 11.7702 8.42932 11.7261 8.32286C11.682 8.21641 11.6593 8.1023 11.6593 7.98707Z" fill="url(#paint0_linear_1_2048)"/>
</g>
<defs>
<linearGradient id="paint0_linear_1_2048" x1="11.4999" y1="0" x2="11.4999" y2="22" gradientUnits="userSpaceOnUse">
<stop stop-color="#28B1FF"/>
<stop offset="1" stop-color="#008EDF"/>
</linearGradient>
<clipPath id="clip0_1_2048">
<rect width="22" height="22" fill="white" transform="translate(0.5)"/>
</clipPath>
</defs>
</svg>
