<svg width="24" height="24" viewBox="0 0 24 24" fill="none" xmlns="http://www.w3.org/2000/svg">
<path d="M22.515 6.01831C21.1453 6.01831 19.8815 5.56456 18.8667 4.79909C17.7028 3.92159 16.8665 2.6344 16.5712 1.15081C16.4981 0.784248 16.4587 0.405967 16.455 0.0183105H12.5423V10.7096L12.5376 16.5657C12.5376 18.1313 11.5181 19.4588 10.1048 19.9257C9.69465 20.0611 9.25168 20.1253 8.79043 20.1C8.20168 20.0677 7.64996 19.89 7.17043 19.6032C6.14996 18.9928 5.45809 17.8857 5.43934 16.6191C5.40981 14.6396 7.01012 13.0257 8.98824 13.0257C9.37871 13.0257 9.75371 13.0894 10.1048 13.2052V10.283V9.23253C9.73449 9.17769 9.35762 9.14909 8.97652 9.14909C6.81137 9.14909 4.78637 10.0491 3.33887 11.6705C2.2448 12.8958 1.58855 14.4591 1.4873 16.0983C1.35465 18.2517 2.14262 20.2988 3.67074 21.8091C3.89527 22.0308 4.13105 22.2366 4.37762 22.4264C5.68777 23.4347 7.28949 23.9813 8.97652 23.9813C9.35762 23.9813 9.73449 23.9532 10.1048 23.8983C11.6807 23.6649 13.1348 22.9435 14.2823 21.8091C15.6923 20.4155 16.4714 18.5653 16.4798 16.5961L16.4597 7.85112C17.1323 8.37003 17.8678 8.7994 18.6571 9.13269C19.8848 9.65065 21.1865 9.91315 22.5262 9.91269V7.07159V6.01737C22.5272 6.01831 22.5159 6.01831 22.515 6.01831V6.01831Z" fill="#044DA8"/>
</svg>
